<?xml version="1.0" encoding="UTF-8"?>
<svg xmlns="http://www.w3.org/2000/svg" width="412" height="782"><rect x="0" y="0" width="412" height="782" fill="rgb(13, 17, 23)"/><svg width="412" height="382" viewBox="0 0 412 382" style="fill:rgb(0, 0, 0);fill-opacity:1;fill-rule:nonzero;stroke:none;stroke-width:1px;stroke-linejoin:miter;stroke-linecap:butt;stroke-opacity:1;opacity:1;font-family:ui-monospace, SFMono-Regular, Menlo, &quot;Cascadia Mono&quot;, Consolas, monospace;font-size:13px;font-weight:400;font-style:normal;text-anchor:start;dominant-baseline:auto;visibility:visible;" x="0" y="0"><line class="grid" x1="92" y1="22" x2="92" y2="374" style="fill:rgb(0, 0, 0);fill-opacity:1;fill-rule:nonzero;stroke:rgb(48, 54, 61);stroke-width:1px;stroke-dasharray:2px, 4px;stroke-linejoin:miter;stroke-linecap:butt;stroke-opacity:1;opacity:1;font-family:ui-monospace, SFMono-Regular, Menlo, &quot;Cascadia Mono&quot;, Consolas, monospace;font-size:13px;font-weight:400;font-style:normal;text-anchor:start;dominant-baseline:auto;visibility:visible;"/><text class="cyc" x="124" y="14" style="fill:rgb(139, 148, 158);fill-opacity:1;fill-rule:nonzero;stroke:none;stroke-width:1px;stroke-linejoin:miter;stroke-linecap:butt;stroke-opacity:1;opacity:1;font-family:ui-monospace, SFMono-Regular, Menlo, &quot;Cascadia Mono&quot;, Consolas, monospace;font-size:10px;font-weight:400;font-style:normal;text-anchor:middle;dominant-baseline:auto;visibility:visible;">0</text><line class="grid" x1="156" y1="22" x2="156" y2="374" style="fill:rgb(0, 0, 0);fill-opacity:1;fill-rule:nonzero;stroke:rgb(48, 54, 61);stroke-width:1px;stroke-dasharray:2px, 4px;stroke-linejoin:miter;stroke-linecap:butt;stroke-opacity:1;opacity:1;font-family:ui-monospace, SFMono-Regular, Menlo, &quot;Cascadia Mono&quot;, Consolas, monospace;font-size:13px;font-weight:400;font-style:normal;text-anchor:start;dominant-baseline:auto;visibility:visible;"/><text class="cyc" x="188" y="14" style="fill:rgb(139, 148, 158);fill-opacity:1;fill-rule:nonzero;stroke:none;stroke-width:1px;stroke-linejoin:miter;stroke-linecap:butt;stroke-opacity:1;opacity:1;font-family:ui-monospace, SFMono-Regular, Menlo, &quot;Cascadia Mono&quot;, Consolas, monospace;font-size:10px;font-weight:400;font-style:normal;text-anchor:middle;dominant-baseline:auto;visibility:visible;">1</text><line class="grid" x1="220" y1="22" x2="220" y2="374" style="fill:rgb(0, 0, 0);fill-opacity:1;fill-rule:nonzero;stroke:rgb(48, 54, 61);stroke-width:1px;stroke-dasharray:2px, 4px;stroke-linejoin:miter;stroke-linecap:butt;stroke-opacity:1;opacity:1;font-family:ui-monospace, SFMono-Regular, Menlo, &quot;Cascadia Mono&quot;, Consolas, monospace;font-size:13px;font-weight:400;font-style:normal;text-anchor:start;dominant-baseline:auto;visibility:visible;"/><text class="cyc" x="252" y="14" style="fill:rgb(139, 148, 158);fill-opacity:1;fill-rule:nonzero;stroke:none;stroke-width:1px;stroke-linejoin:miter;stroke-linecap:butt;stroke-opacity:1;opacity:1;font-family:ui-monospace, SFMono-Regular, Menlo, &quot;Cascadia Mono&quot;, Consolas, monospace;font-size:10px;font-weight:400;font-style:normal;text-anchor:middle;dominant-baseline:auto;visibility:visible;">2</text><line class="grid" x1="284" y1="22" x2="284" y2="374" style="fill:rgb(0, 0, 0);fill-opacity:1;fill-rule:nonzero;stroke:rgb(48, 54, 61);stroke-width:1px;stroke-dasharray:2px, 4px;stroke-linejoin:miter;stroke-linecap:butt;stroke-opacity:1;opacity:1;font-family:ui-monospace, SFMono-Regular, Menlo, &quot;Cascadia Mono&quot;, Consolas, monospace;font-size:13px;font-weight:400;font-style:normal;text-anchor:start;dominant-baseline:auto;visibility:visible;"/><text class="cyc" x="316" y="14" style="fill:rgb(139, 148, 158);fill-opacity:1;fill-rule:nonzero;stroke:none;stroke-width:1px;stroke-linejoin:miter;stroke-linecap:butt;stroke-opacity:1;opacity:1;font-family:ui-monospace, SFMono-Regular, Menlo, &quot;Cascadia Mono&quot;, Consolas, monospace;font-size:10px;font-weight:400;font-style:normal;text-anchor:middle;dominant-baseline:auto;visibility:visible;">3</text><line class="grid" x1="348" y1="22" x2="348" y2="374" style="fill:rgb(0, 0, 0);fill-opacity:1;fill-rule:nonzero;stroke:rgb(48, 54, 61);stroke-width:1px;stroke-dasharray:2px, 4px;stroke-linejoin:miter;stroke-linecap:butt;stroke-opacity:1;opacity:1;font-family:ui-monospace, SFMono-Regular, Menlo, &quot;Cascadia Mono&quot;, Consolas, monospace;font-size:13px;font-weight:400;font-style:normal;text-anchor:start;dominant-baseline:auto;visibility:visible;"/><text class="cyc" x="380" y="14" style="fill:rgb(139, 148, 158);fill-opacity:1;fill-rule:nonzero;stroke:none;stroke-width:1px;stroke-linejoin:miter;stroke-linecap:butt;stroke-opacity:1;opacity:1;font-family:ui-monospace, SFMono-Regular, Menlo, &quot;Cascadia Mono&quot;, Consolas, monospace;font-size:10px;font-weight:400;font-style:normal;text-anchor:middle;dominant-baseline:auto;visibility:visible;">4</text><text class="lbl" x="8" y="45" style="fill:rgb(139, 148, 158);fill-opacity:1;fill-rule:nonzero;stroke:none;stroke-width:1px;stroke-linejoin:miter;stroke-linecap:butt;stroke-opacity:1;opacity:1;font-family:ui-monospace, SFMono-Regular, Menlo, &quot;Cascadia Mono&quot;, Consolas, monospace;font-size:12px;font-weight:400;font-style:normal;text-anchor:start;dominant-baseline:auto;visibility:visible;">PCLK</text><path class="wave" d="M92,52 L92,30 L124,30 L124,52 L156,52 M156,52 L156,30 L188,30 L188,52 L220,52 M220,52 L220,30 L252,30 L252,52 L284,52 M284,52 L284,30 L316,30 L316,52 L348,52 M348,52 L348,30 L380,30 L380,52 L412,52" style="fill:none;fill-opacity:1;fill-rule:nonzero;stroke:rgb(88, 166, 255);stroke-width:1.6px;stroke-linejoin:round;stroke-linecap:butt;stroke-opacity:1;opacity:1;font-family:ui-monospace, SFMono-Regular, Menlo, &quot;Cascadia Mono&quot;, Consolas, monospace;font-size:13px;font-weight:400;font-style:normal;text-anchor:start;dominant-baseline:auto;visibility:visible;"/><text class="lbl" x="8" y="89" style="fill:rgb(139, 148, 158);fill-opacity:1;fill-rule:nonzero;stroke:none;stroke-width:1px;stroke-linejoin:miter;stroke-linecap:butt;stroke-opacity:1;opacity:1;font-family:ui-monospace, SFMono-Regular, Menlo, &quot;Cascadia Mono&quot;, Consolas, monospace;font-size:12px;font-weight:400;font-style:normal;text-anchor:start;dominant-baseline:auto;visibility:visible;">PSEL</text><path class="wave" d="M92,96 L156,96 M156,96 L156,74 M156,74 L220,74 M220,74 L284,74 M284,74 L284,96 M284,96 L348,96 M348,96 L412,96" style="fill:none;fill-opacity:1;fill-rule:nonzero;stroke:rgb(88, 166, 255);stroke-width:1.6px;stroke-linejoin:round;stroke-linecap:butt;stroke-opacity:1;opacity:1;font-family:ui-monospace, SFMono-Regular, Menlo, &quot;Cascadia Mono&quot;, Consolas, monospace;font-size:13px;font-weight:400;font-style:normal;text-anchor:start;dominant-baseline:auto;visibility:visible;"/><text class="lbl" x="8" y="133" style="fill:rgb(139, 148, 158);fill-opacity:1;fill-rule:nonzero;stroke:none;stroke-width:1px;stroke-linejoin:miter;stroke-linecap:butt;stroke-opacity:1;opacity:1;font-family:ui-monospace, SFMono-Regular, Menlo, &quot;Cascadia Mono&quot;, Consolas, monospace;font-size:12px;font-weight:400;font-style:normal;text-anchor:start;dominant-baseline:auto;visibility:visible;">PENABLE</text><path class="wave" d="M92,140 L156,140 M156,140 L220,140 M220,140 L220,118 M220,118 L284,118 M284,118 L284,140 M284,140 L348,140 M348,140 L412,140" style="fill:none;fill-opacity:1;fill-rule:nonzero;stroke:rgb(88, 166, 255);stroke-width:1.6px;stroke-linejoin:round;stroke-linecap:butt;stroke-opacity:1;opacity:1;font-family:ui-monospace, SFMono-Regular, Menlo, &quot;Cascadia Mono&quot;, Consolas, monospace;font-size:13px;font-weight:400;font-style:normal;text-anchor:start;dominant-baseline:auto;visibility:visible;"/><text class="lbl" x="8" y="177" style="fill:rgb(139, 148, 158);fill-opacity:1;fill-rule:nonzero;stroke:none;stroke-width:1px;stroke-linejoin:miter;stroke-linecap:butt;stroke-opacity:1;opacity:1;font-family:ui-monospace, SFMono-Regular, Menlo, &quot;Cascadia Mono&quot;, Consolas, monospace;font-size:12px;font-weight:400;font-style:normal;text-anchor:start;dominant-baseline:auto;visibility:visible;">PWRITE</text><path class="hatch" d="M92,162 L114,184 M98,162 L120,184 M104,162 L126,184 M110,162 L132,184 M116,162 L138,184 M122,162 L144,184 M128,162 L150,184 M134,162 L156,184 M140,162 L156,184 M146,162 L156,184 M152,162 L156,184 M284,162 L306,184 M290,162 L312,184 M296,162 L318,184 M302,162 L324,184 M308,162 L330,184 M314,162 L336,184 M320,162 L342,184 M326,162 L348,184 M332,162 L348,184 M338,162 L348,184 M344,162 L348,184 M348,162 L370,184 M354,162 L376,184 M360,162 L382,184 M366,162 L388,184 M372,162 L394,184 M378,162 L400,184 M384,162 L406,184 M390,162 L412,184 M396,162 L412,184 M402,162 L412,184 M408,162 L412,184" style="fill:rgb(0, 0, 0);fill-opacity:1;fill-rule:nonzero;stroke:rgb(139, 148, 158);stroke-width:1px;stroke-linejoin:miter;stroke-linecap:butt;stroke-opacity:1;opacity:0.5;font-family:ui-monospace, SFMono-Regular, Menlo, &quot;Cascadia Mono&quot;, Consolas, monospace;font-size:13px;font-weight:400;font-style:normal;text-anchor:start;dominant-baseline:auto;visibility:visible;"/><path class="wave" d="M92,162 L156,162 M92,184 L156,184 M156,173 L156,162 M156,162 L220,162 M220,162 L284,162 M284,162 L348,162 M284,184 L348,184 M348,162 L412,162 M348,184 L412,184" style="fill:none;fill-opacity:1;fill-rule:nonzero;stroke:rgb(88, 166, 255);stroke-width:1.6px;stroke-linejoin:round;stroke-linecap:butt;stroke-opacity:1;opacity:1;font-family:ui-monospace, SFMono-Regular, Menlo, &quot;Cascadia Mono&quot;, Consolas, monospace;font-size:13px;font-weight:400;font-style:normal;text-anchor:start;dominant-baseline:auto;visibility:visible;"/><text class="lbl" x="8" y="221" style="fill:rgb(139, 148, 158);fill-opacity:1;fill-rule:nonzero;stroke:none;stroke-width:1px;stroke-linejoin:miter;stroke-linecap:butt;stroke-opacity:1;opacity:1;font-family:ui-monospace, SFMono-Regular, Menlo, &quot;Cascadia Mono&quot;, Consolas, monospace;font-size:12px;font-weight:400;font-style:normal;text-anchor:start;dominant-baseline:auto;visibility:visible;">PADDR</text><path class="hatch" d="M92,206 L114,228 M98,206 L120,228 M104,206 L126,228 M110,206 L132,228 M116,206 L138,228 M122,206 L144,228 M128,206 L150,228 M134,206 L156,228 M140,206 L156,228 M146,206 L156,228 M152,206 L156,228 M284,206 L306,228 M290,206 L312,228 M296,206 L318,228 M302,206 L324,228 M308,206 L330,228 M314,206 L336,228 M320,206 L342,228 M326,206 L348,228 M332,206 L348,228 M338,206 L348,228 M344,206 L348,228 M348,206 L370,228 M354,206 L376,228 M360,206 L382,228 M366,206 L388,228 M372,206 L394,228 M378,206 L400,228 M384,206 L406,228 M390,206 L412,228 M396,206 L412,228 M402,206 L412,228 M408,206 L412,228" style="fill:rgb(0, 0, 0);fill-opacity:1;fill-rule:nonzero;stroke:rgb(139, 148, 158);stroke-width:1px;stroke-linejoin:miter;stroke-linecap:butt;stroke-opacity:1;opacity:0.5;font-family:ui-monospace, SFMono-Regular, Menlo, &quot;Cascadia Mono&quot;, Consolas, monospace;font-size:13px;font-weight:400;font-style:normal;text-anchor:start;dominant-baseline:auto;visibility:visible;"/><path class="wave" d="M92,206 L156,206 M92,228 L156,228 M156,217 L161,206 M156,217 L161,228 M161,206 L284,206 M161,228 L284,228 M284,206 L348,206 M284,228 L348,228 M348,206 L412,206 M348,228 L412,228" style="fill:none;fill-opacity:1;fill-rule:nonzero;stroke:rgb(88, 166, 255);stroke-width:1.6px;stroke-linejoin:round;stroke-linecap:butt;stroke-opacity:1;opacity:1;font-family:ui-monospace, SFMono-Regular, Menlo, &quot;Cascadia Mono&quot;, Consolas, monospace;font-size:13px;font-weight:400;font-style:normal;text-anchor:start;dominant-baseline:auto;visibility:visible;"/><text class="busText" x="220" y="221" style="fill:rgb(230, 237, 243);fill-opacity:1;fill-rule:nonzero;stroke:none;stroke-width:1px;stroke-linejoin:miter;stroke-linecap:butt;stroke-opacity:1;opacity:1;font-family:ui-monospace, SFMono-Regular, Menlo, &quot;Cascadia Mono&quot;, Consolas, monospace;font-size:11px;font-weight:400;font-style:normal;text-anchor:middle;dominant-baseline:auto;visibility:visible;">0x0</text><text class="lbl" x="8" y="265" style="fill:rgb(139, 148, 158);fill-opacity:1;fill-rule:nonzero;stroke:none;stroke-width:1px;stroke-linejoin:miter;stroke-linecap:butt;stroke-opacity:1;opacity:1;font-family:ui-monospace, SFMono-Regular, Menlo, &quot;Cascadia Mono&quot;, Consolas, monospace;font-size:12px;font-weight:400;font-style:normal;text-anchor:start;dominant-baseline:auto;visibility:visible;">PWDATA</text><path class="hatch" d="M92,250 L114,272 M98,250 L120,272 M104,250 L126,272 M110,250 L132,272 M116,250 L138,272 M122,250 L144,272 M128,250 L150,272 M134,250 L156,272 M140,250 L156,272 M146,250 L156,272 M152,250 L156,272 M284,250 L306,272 M290,250 L312,272 M296,250 L318,272 M302,250 L324,272 M308,250 L330,272 M314,250 L336,272 M320,250 L342,272 M326,250 L348,272 M332,250 L348,272 M338,250 L348,272 M344,250 L348,272 M348,250 L370,272 M354,250 L376,272 M360,250 L382,272 M366,250 L388,272 M372,250 L394,272 M378,250 L400,272 M384,250 L406,272 M390,250 L412,272 M396,250 L412,272 M402,250 L412,272 M408,250 L412,272" style="fill:rgb(0, 0, 0);fill-opacity:1;fill-rule:nonzero;stroke:rgb(139, 148, 158);stroke-width:1px;stroke-linejoin:miter;stroke-linecap:butt;stroke-opacity:1;opacity:0.5;font-family:ui-monospace, SFMono-Regular, Menlo, &quot;Cascadia Mono&quot;, Consolas, monospace;font-size:13px;font-weight:400;font-style:normal;text-anchor:start;dominant-baseline:auto;visibility:visible;"/><path class="wave" d="M92,250 L156,250 M92,272 L156,272 M156,261 L161,250 M156,261 L161,272 M161,250 L284,250 M161,272 L284,272 M284,250 L348,250 M284,272 L348,272 M348,250 L412,250 M348,272 L412,272" style="fill:none;fill-opacity:1;fill-rule:nonzero;stroke:rgb(88, 166, 255);stroke-width:1.6px;stroke-linejoin:round;stroke-linecap:butt;stroke-opacity:1;opacity:1;font-family:ui-monospace, SFMono-Regular, Menlo, &quot;Cascadia Mono&quot;, Consolas, monospace;font-size:13px;font-weight:400;font-style:normal;text-anchor:start;dominant-baseline:auto;visibility:visible;"/><text class="busText" x="220" y="265" style="fill:rgb(230, 237, 243);fill-opacity:1;fill-rule:nonzero;stroke:none;stroke-width:1px;stroke-linejoin:miter;stroke-linecap:butt;stroke-opacity:1;opacity:1;font-family:ui-monospace, SFMono-Regular, Menlo, &quot;Cascadia Mono&quot;, Consolas, monospace;font-size:11px;font-weight:400;font-style:normal;text-anchor:middle;dominant-baseline:auto;visibility:visible;">0x55</text><text class="lbl" x="8" y="309" style="fill:rgb(139, 148, 158);fill-opacity:1;fill-rule:nonzero;stroke:none;stroke-width:1px;stroke-linejoin:miter;stroke-linecap:butt;stroke-opacity:1;opacity:1;font-family:ui-monospace, SFMono-Regular, Menlo, &quot;Cascadia Mono&quot;, Consolas, monospace;font-size:12px;font-weight:400;font-style:normal;text-anchor:start;dominant-baseline:auto;visibility:visible;">PREADY</text><path class="wave" d="M92,316 L92,294 M92,294 L156,294 M156,294 L220,294 M220,294 L284,294 M284,294 L348,294 M348,294 L412,294" style="fill:none;fill-opacity:1;fill-rule:nonzero;stroke:rgb(88, 166, 255);stroke-width:1.6px;stroke-linejoin:round;stroke-linecap:butt;stroke-opacity:1;opacity:1;font-family:ui-monospace, SFMono-Regular, Menlo, &quot;Cascadia Mono&quot;, Consolas, monospace;font-size:13px;font-weight:400;font-style:normal;text-anchor:start;dominant-baseline:auto;visibility:visible;"/><text class="lbl" x="8" y="353" style="fill:rgb(139, 148, 158);fill-opacity:1;fill-rule:nonzero;stroke:none;stroke-width:1px;stroke-linejoin:miter;stroke-linecap:butt;stroke-opacity:1;opacity:1;font-family:ui-monospace, SFMono-Regular, Menlo, &quot;Cascadia Mono&quot;, Consolas, monospace;font-size:12px;font-weight:400;font-style:normal;text-anchor:start;dominant-baseline:auto;visibility:visible;">gpio_out</text><path class="wave" d="M92,349 L97,338 M92,349 L97,360 M97,338 L220,338 M97,360 L220,360 M220,349 L225,338 M220,349 L225,360 M225,338 L412,338 M225,360 L412,360" style="fill:none;fill-opacity:1;fill-rule:nonzero;stroke:rgb(88, 166, 255);stroke-width:1.6px;stroke-linejoin:round;stroke-linecap:butt;stroke-opacity:1;opacity:1;font-family:ui-monospace, SFMono-Regular, Menlo, &quot;Cascadia Mono&quot;, Consolas, monospace;font-size:13px;font-weight:400;font-style:normal;text-anchor:start;dominant-baseline:auto;visibility:visible;"/><text class="busText" x="156" y="353" style="fill:rgb(230, 237, 243);fill-opacity:1;fill-rule:nonzero;stroke:none;stroke-width:1px;stroke-linejoin:miter;stroke-linecap:butt;stroke-opacity:1;opacity:1;font-family:ui-monospace, SFMono-Regular, Menlo, &quot;Cascadia Mono&quot;, Consolas, monospace;font-size:11px;font-weight:400;font-style:normal;text-anchor:middle;dominant-baseline:auto;visibility:visible;">0x0</text><text class="busText" x="316" y="353" style="fill:rgb(230, 237, 243);fill-opacity:1;fill-rule:nonzero;stroke:none;stroke-width:1px;stroke-linejoin:miter;stroke-linecap:butt;stroke-opacity:1;opacity:1;font-family:ui-monospace, SFMono-Regular, Menlo, &quot;Cascadia Mono&quot;, Consolas, monospace;font-size:11px;font-weight:400;font-style:normal;text-anchor:middle;dominant-baseline:auto;visibility:visible;">0x55</text></svg><svg width="412" height="382" viewBox="0 0 412 382" style="fill:rgb(0, 0, 0);fill-opacity:1;fill-rule:nonzero;stroke:none;stroke-width:1px;stroke-linejoin:miter;stroke-linecap:butt;stroke-opacity:1;opacity:1;font-family:ui-monospace, SFMono-Regular, Menlo, &quot;Cascadia Mono&quot;, Consolas, monospace;font-size:13px;font-weight:400;font-style:normal;text-anchor:start;dominant-baseline:auto;visibility:visible;" x="0" y="400"><line class="grid" x1="92" y1="22" x2="92" y2="374" style="fill:rgb(0, 0, 0);fill-opacity:1;fill-rule:nonzero;stroke:rgb(48, 54, 61);stroke-width:1px;stroke-dasharray:2px, 4px;stroke-linejoin:miter;stroke-linecap:butt;stroke-opacity:1;opacity:1;font-family:ui-monospace, SFMono-Regular, Menlo, &quot;Cascadia Mono&quot;, Consolas, monospace;font-size:13px;font-weight:400;font-style:normal;text-anchor:start;dominant-baseline:auto;visibility:visible;"/><text class="cyc" x="124" y="14" style="fill:rgb(139, 148, 158);fill-opacity:1;fill-rule:nonzero;stroke:none;stroke-width:1px;stroke-linejoin:miter;stroke-linecap:butt;stroke-opacity:1;opacity:1;font-family:ui-monospace, SFMono-Regular, Menlo, &quot;Cascadia Mono&quot;, Consolas, monospace;font-size:10px;font-weight:400;font-style:normal;text-anchor:middle;dominant-baseline:auto;visibility:visible;">0</text><line class="grid" x1="156" y1="22" x2="156" y2="374" style="fill:rgb(0, 0, 0);fill-opacity:1;fill-rule:nonzero;stroke:rgb(48, 54, 61);stroke-width:1px;stroke-dasharray:2px, 4px;stroke-linejoin:miter;stroke-linecap:butt;stroke-opacity:1;opacity:1;font-family:ui-monospace, SFMono-Regular, Menlo, &quot;Cascadia Mono&quot;, Consolas, monospace;font-size:13px;font-weight:400;font-style:normal;text-anchor:start;dominant-baseline:auto;visibility:visible;"/><text class="cyc" x="188" y="14" style="fill:rgb(139, 148, 158);fill-opacity:1;fill-rule:nonzero;stroke:none;stroke-width:1px;stroke-linejoin:miter;stroke-linecap:butt;stroke-opacity:1;opacity:1;font-family:ui-monospace, SFMono-Regular, Menlo, &quot;Cascadia Mono&quot;, Consolas, monospace;font-size:10px;font-weight:400;font-style:normal;text-anchor:middle;dominant-baseline:auto;visibility:visible;">1</text><line class="grid" x1="220" y1="22" x2="220" y2="374" style="fill:rgb(0, 0, 0);fill-opacity:1;fill-rule:nonzero;stroke:rgb(48, 54, 61);stroke-width:1px;stroke-dasharray:2px, 4px;stroke-linejoin:miter;stroke-linecap:butt;stroke-opacity:1;opacity:1;font-family:ui-monospace, SFMono-Regular, Menlo, &quot;Cascadia Mono&quot;, Consolas, monospace;font-size:13px;font-weight:400;font-style:normal;text-anchor:start;dominant-baseline:auto;visibility:visible;"/><text class="cyc" x="252" y="14" style="fill:rgb(139, 148, 158);fill-opacity:1;fill-rule:nonzero;stroke:none;stroke-width:1px;stroke-linejoin:miter;stroke-linecap:butt;stroke-opacity:1;opacity:1;font-family:ui-monospace, SFMono-Regular, Menlo, &quot;Cascadia Mono&quot;, Consolas, monospace;font-size:10px;font-weight:400;font-style:normal;text-anchor:middle;dominant-baseline:auto;visibility:visible;">2</text><line class="grid" x1="284" y1="22" x2="284" y2="374" style="fill:rgb(0, 0, 0);fill-opacity:1;fill-rule:nonzero;stroke:rgb(48, 54, 61);stroke-width:1px;stroke-dasharray:2px, 4px;stroke-linejoin:miter;stroke-linecap:butt;stroke-opacity:1;opacity:1;font-family:ui-monospace, SFMono-Regular, Menlo, &quot;Cascadia Mono&quot;, Consolas, monospace;font-size:13px;font-weight:400;font-style:normal;text-anchor:start;dominant-baseline:auto;visibility:visible;"/><text class="cyc" x="316" y="14" style="fill:rgb(139, 148, 158);fill-opacity:1;fill-rule:nonzero;stroke:none;stroke-width:1px;stroke-linejoin:miter;stroke-linecap:butt;stroke-opacity:1;opacity:1;font-family:ui-monospace, SFMono-Regular, Menlo, &quot;Cascadia Mono&quot;, Consolas, monospace;font-size:10px;font-weight:400;font-style:normal;text-anchor:middle;dominant-baseline:auto;visibility:visible;">3</text><line class="grid" x1="348" y1="22" x2="348" y2="374" style="fill:rgb(0, 0, 0);fill-opacity:1;fill-rule:nonzero;stroke:rgb(48, 54, 61);stroke-width:1px;stroke-dasharray:2px, 4px;stroke-linejoin:miter;stroke-linecap:butt;stroke-opacity:1;opacity:1;font-family:ui-monospace, SFMono-Regular, Menlo, &quot;Cascadia Mono&quot;, Consolas, monospace;font-size:13px;font-weight:400;font-style:normal;text-anchor:start;dominant-baseline:auto;visibility:visible;"/><text class="cyc" x="380" y="14" style="fill:rgb(139, 148, 158);fill-opacity:1;fill-rule:nonzero;stroke:none;stroke-width:1px;stroke-linejoin:miter;stroke-linecap:butt;stroke-opacity:1;opacity:1;font-family:ui-monospace, SFMono-Regular, Menlo, &quot;Cascadia Mono&quot;, Consolas, monospace;font-size:10px;font-weight:400;font-style:normal;text-anchor:middle;dominant-baseline:auto;visibility:visible;">4</text><text class="lbl" x="8" y="45" style="fill:rgb(139, 148, 158);fill-opacity:1;fill-rule:nonzero;stroke:none;stroke-width:1px;stroke-linejoin:miter;stroke-linecap:butt;stroke-opacity:1;opacity:1;font-family:ui-monospace, SFMono-Regular, Menlo, &quot;Cascadia Mono&quot;, Consolas, monospace;font-size:12px;font-weight:400;font-style:normal;text-anchor:start;dominant-baseline:auto;visibility:visible;">PCLK</text><path class="wave act" d="M92,52 L92,30 L124,30 L124,52 L156,52 M156,52 L156,30 L188,30 L188,52 L220,52 M220,52 L220,30 L252,30 L252,52 L284,52 M284,52 L284,30 L316,30 L316,52 L348,52 M348,52 L348,30 L380,30 L380,52 L412,52" style="fill:none;fill-opacity:1;fill-rule:nonzero;stroke:rgb(210, 153, 34);stroke-width:1.6px;stroke-linejoin:round;stroke-linecap:butt;stroke-opacity:1;opacity:1;font-family:ui-monospace, SFMono-Regular, Menlo, &quot;Cascadia Mono&quot;, Consolas, monospace;font-size:13px;font-weight:400;font-style:normal;text-anchor:start;dominant-baseline:auto;visibility:visible;"/><text class="lbl" x="8" y="89" style="fill:rgb(139, 148, 158);fill-opacity:1;fill-rule:nonzero;stroke:none;stroke-width:1px;stroke-linejoin:miter;stroke-linecap:butt;stroke-opacity:1;opacity:1;font-family:ui-monospace, SFMono-Regular, Menlo, &quot;Cascadia Mono&quot;, Consolas, monospace;font-size:12px;font-weight:400;font-style:normal;text-anchor:start;dominant-baseline:auto;visibility:visible;">PSEL</text><path class="wave act" d="M92,96 L156,96 M156,96 L156,74 M156,74 L220,74 M220,74 L284,74 M284,74 L284,96 M284,96 L348,96 M348,96 L412,96" style="fill:none;fill-opacity:1;fill-rule:nonzero;stroke:rgb(210, 153, 34);stroke-width:1.6px;stroke-linejoin:round;stroke-linecap:butt;stroke-opacity:1;opacity:1;font-family:ui-monospace, SFMono-Regular, Menlo, &quot;Cascadia Mono&quot;, Consolas, monospace;font-size:13px;font-weight:400;font-style:normal;text-anchor:start;dominant-baseline:auto;visibility:visible;"/><text class="lbl" x="8" y="133" style="fill:rgb(139, 148, 158);fill-opacity:1;fill-rule:nonzero;stroke:none;stroke-width:1px;stroke-linejoin:miter;stroke-linecap:butt;stroke-opacity:1;opacity:1;font-family:ui-monospace, SFMono-Regular, Menlo, &quot;Cascadia Mono&quot;, Consolas, monospace;font-size:12px;font-weight:400;font-style:normal;text-anchor:start;dominant-baseline:auto;visibility:visible;">PENABLE</text><path class="wave act" d="M92,140 L156,140 M156,140 L220,140 M220,140 L220,118 M220,118 L284,118 M284,118 L284,140 M284,140 L348,140 M348,140 L412,140" style="fill:none;fill-opacity:1;fill-rule:nonzero;stroke:rgb(210, 153, 34);stroke-width:1.6px;stroke-linejoin:round;stroke-linecap:butt;stroke-opacity:1;opacity:1;font-family:ui-monospace, SFMono-Regular, Menlo, &quot;Cascadia Mono&quot;, Consolas, monospace;font-size:13px;font-weight:400;font-style:normal;text-anchor:start;dominant-baseline:auto;visibility:visible;"/><text class="lbl" x="8" y="177" style="fill:rgb(139, 148, 158);fill-opacity:1;fill-rule:nonzero;stroke:none;stroke-width:1px;stroke-linejoin:miter;stroke-linecap:butt;stroke-opacity:1;opacity:1;font-family:ui-monospace, SFMono-Regular, Menlo, &quot;Cascadia Mono&quot;, Consolas, monospace;font-size:12px;font-weight:400;font-style:normal;text-anchor:start;dominant-baseline:auto;visibility:visible;">PWRITE</text><path class="wave act" d="M92,184 L92,162 M92,162 L156,162 M156,162 L220,162 M220,162 L284,162 M284,162 L284,184 M284,184 L348,184 M348,184 L348,162 M348,162 L412,162" style="fill:none;fill-opacity:1;fill-rule:nonzero;stroke:rgb(210, 153, 34);stroke-width:1.6px;stroke-linejoin:round;stroke-linecap:butt;stroke-opacity:1;opacity:1;font-family:ui-monospace, SFMono-Regular, Menlo, &quot;Cascadia Mono&quot;, Consolas, monospace;font-size:13px;font-weight:400;font-style:normal;text-anchor:start;dominant-baseline:auto;visibility:visible;"/><text class="lbl" x="8" y="221" style="fill:rgb(139, 148, 158);fill-opacity:1;fill-rule:nonzero;stroke:none;stroke-width:1px;stroke-linejoin:miter;stroke-linecap:butt;stroke-opacity:1;opacity:1;font-family:ui-monospace, SFMono-Regular, Menlo, &quot;Cascadia Mono&quot;, Consolas, monospace;font-size:12px;font-weight:400;font-style:normal;text-anchor:start;dominant-baseline:auto;visibility:visible;">PADDR</text><path class="wave act" d="M92,217 L97,206 M92,217 L97,228 M97,206 L412,206 M97,228 L412,228" style="fill:none;fill-opacity:1;fill-rule:nonzero;stroke:rgb(210, 153, 34);stroke-width:1.6px;stroke-linejoin:round;stroke-linecap:butt;stroke-opacity:1;opacity:1;font-family:ui-monospace, SFMono-Regular, Menlo, &quot;Cascadia Mono&quot;, Consolas, monospace;font-size:13px;font-weight:400;font-style:normal;text-anchor:start;dominant-baseline:auto;visibility:visible;"/><text class="busText" x="252" y="221" style="fill:rgb(230, 237, 243);fill-opacity:1;fill-rule:nonzero;stroke:none;stroke-width:1px;stroke-linejoin:miter;stroke-linecap:butt;stroke-opacity:1;opacity:1;font-family:ui-monospace, SFMono-Regular, Menlo, &quot;Cascadia Mono&quot;, Consolas, monospace;font-size:11px;font-weight:400;font-style:normal;text-anchor:middle;dominant-baseline:auto;visibility:visible;">0x0</text><text class="lbl" x="8" y="265" style="fill:rgb(139, 148, 158);fill-opacity:1;fill-rule:nonzero;stroke:none;stroke-width:1px;stroke-linejoin:miter;stroke-linecap:butt;stroke-opacity:1;opacity:1;font-family:ui-monospace, SFMono-Regular, Menlo, &quot;Cascadia Mono&quot;, Consolas, monospace;font-size:12px;font-weight:400;font-style:normal;text-anchor:start;dominant-baseline:auto;visibility:visible;">PWDATA</text><path class="wave act" d="M92,261 L97,250 M92,261 L97,272 M97,250 L156,250 M97,272 L156,272 M156,261 L161,250 M156,261 L161,272 M161,250 L348,250 M161,272 L348,272 M348,261 L353,250 M348,261 L353,272 M353,250 L412,250 M353,272 L412,272" style="fill:none;fill-opacity:1;fill-rule:nonzero;stroke:rgb(210, 153, 34);stroke-width:1.6px;stroke-linejoin:round;stroke-linecap:butt;stroke-opacity:1;opacity:1;font-family:ui-monospace, SFMono-Regular, Menlo, &quot;Cascadia Mono&quot;, Consolas, monospace;font-size:13px;font-weight:400;font-style:normal;text-anchor:start;dominant-baseline:auto;visibility:visible;"/><text class="busText" x="124" y="265" style="fill:rgb(230, 237, 243);fill-opacity:1;fill-rule:nonzero;stroke:none;stroke-width:1px;stroke-linejoin:miter;stroke-linecap:butt;stroke-opacity:1;opacity:1;font-family:ui-monospace, SFMono-Regular, Menlo, &quot;Cascadia Mono&quot;, Consolas, monospace;font-size:11px;font-weight:400;font-style:normal;text-anchor:middle;dominant-baseline:auto;visibility:visible;">0xD</text><text class="busText" x="252" y="265" style="fill:rgb(230, 237, 243);fill-opacity:1;fill-rule:nonzero;stroke:none;stroke-width:1px;stroke-linejoin:miter;stroke-linecap:butt;stroke-opacity:1;opacity:1;font-family:ui-monospace, SFMono-Regular, Menlo, &quot;Cascadia Mono&quot;, Consolas, monospace;font-size:11px;font-weight:400;font-style:normal;text-anchor:middle;dominant-baseline:auto;visibility:visible;">0x55</text><text class="busText" x="380" y="265" style="fill:rgb(230, 237, 243);fill-opacity:1;fill-rule:nonzero;stroke:none;stroke-width:1px;stroke-linejoin:miter;stroke-linecap:butt;stroke-opacity:1;opacity:1;font-family:ui-monospace, SFMono-Regular, Menlo, &quot;Cascadia Mono&quot;, Consolas, monospace;font-size:11px;font-weight:400;font-style:normal;text-anchor:middle;dominant-baseline:auto;visibility:visible;">0xF</text><text class="lbl" x="8" y="309" style="fill:rgb(139, 148, 158);fill-opacity:1;fill-rule:nonzero;stroke:none;stroke-width:1px;stroke-linejoin:miter;stroke-linecap:butt;stroke-opacity:1;opacity:1;font-family:ui-monospace, SFMono-Regular, Menlo, &quot;Cascadia Mono&quot;, Consolas, monospace;font-size:12px;font-weight:400;font-style:normal;text-anchor:start;dominant-baseline:auto;visibility:visible;">PREADY</text><path class="wave act" d="M92,316 L92,294 M92,294 L156,294 M156,294 L220,294 M220,294 L284,294 M284,294 L348,294 M348,294 L412,294" style="fill:none;fill-opacity:1;fill-rule:nonzero;stroke:rgb(210, 153, 34);stroke-width:1.6px;stroke-linejoin:round;stroke-linecap:butt;stroke-opacity:1;opacity:1;font-family:ui-monospace, SFMono-Regular, Menlo, &quot;Cascadia Mono&quot;, Consolas, monospace;font-size:13px;font-weight:400;font-style:normal;text-anchor:start;dominant-baseline:auto;visibility:visible;"/><text class="lbl" x="8" y="353" style="fill:rgb(139, 148, 158);fill-opacity:1;fill-rule:nonzero;stroke:none;stroke-width:1px;stroke-linejoin:miter;stroke-linecap:butt;stroke-opacity:1;opacity:1;font-family:ui-monospace, SFMono-Regular, Menlo, &quot;Cascadia Mono&quot;, Consolas, monospace;font-size:12px;font-weight:400;font-style:normal;text-anchor:start;dominant-baseline:auto;visibility:visible;">gpio_out</text><path class="wave act" d="M92,349 L97,338 M92,349 L97,360 M97,338 L220,338 M97,360 L220,360 M220,349 L225,338 M220,349 L225,360 M225,338 L412,338 M225,360 L412,360" style="fill:none;fill-opacity:1;fill-rule:nonzero;stroke:rgb(210, 153, 34);stroke-width:1.6px;stroke-linejoin:round;stroke-linecap:butt;stroke-opacity:1;opacity:1;font-family:ui-monospace, SFMono-Regular, Menlo, &quot;Cascadia Mono&quot;, Consolas, monospace;font-size:13px;font-weight:400;font-style:normal;text-anchor:start;dominant-baseline:auto;visibility:visible;"/><text class="busText" x="156" y="353" style="fill:rgb(230, 237, 243);fill-opacity:1;fill-rule:nonzero;stroke:none;stroke-width:1px;stroke-linejoin:miter;stroke-linecap:butt;stroke-opacity:1;opacity:1;font-family:ui-monospace, SFMono-Regular, Menlo, &quot;Cascadia Mono&quot;, Consolas, monospace;font-size:11px;font-weight:400;font-style:normal;text-anchor:middle;dominant-baseline:auto;visibility:visible;">0x0</text><text class="busText" x="316" y="353" style="fill:rgb(230, 237, 243);fill-opacity:1;fill-rule:nonzero;stroke:none;stroke-width:1px;stroke-linejoin:miter;stroke-linecap:butt;stroke-opacity:1;opacity:1;font-family:ui-monospace, SFMono-Regular, Menlo, &quot;Cascadia Mono&quot;, Consolas, monospace;font-size:11px;font-weight:400;font-style:normal;text-anchor:middle;dominant-baseline:auto;visibility:visible;">0x55</text></svg></svg>